<svg width="300" height="136" viewBox="0 0 300 136" fill="none" xmlns="http://www.w3.org/2000/svg">
<rect x="0.5" y="0.5" width="299" height="135" rx="15.5" stroke="url(#paint0_linear_0_2864)"/>
<path d="M75.44 76V61.1H81.72C82.7067 61.1 83.5467 61.2733 84.24 61.62C84.9467 61.9533 85.4867 62.4333 85.86 63.06C86.2467 63.6733 86.44 64.42 86.44 65.3C86.44 65.98 86.2533 66.62 85.88 67.22C85.52 67.8067 84.94 68.2933 84.14 68.68V67.42C84.8733 67.7 85.4533 68.0467 85.88 68.46C86.3067 68.8733 86.6067 69.3333 86.78 69.84C86.9533 70.3467 87.04 70.88 87.04 71.44C87.04 72.8667 86.5667 73.9867 85.62 74.8C84.6867 75.6 83.3867 76 81.72 76H75.44ZM78.16 73.6H82C82.7067 73.6 83.2667 73.4067 83.68 73.02C84.1067 72.62 84.32 72.0933 84.32 71.44C84.32 70.7867 84.1067 70.26 83.68 69.86C83.2667 69.46 82.7067 69.26 82 69.26H78.16V73.6ZM78.16 66.88H81.86C82.42 66.88 82.8667 66.72 83.2 66.4C83.5333 66.0667 83.7 65.64 83.7 65.12C83.7 64.6 83.5333 64.1867 83.2 63.88C82.8667 63.5733 82.42 63.42 81.86 63.42H78.16V66.88ZM94.3681 76.24C93.3015 76.24 92.3281 75.9933 91.4481 75.5C90.5815 75.0067 89.8881 74.3333 89.3681 73.48C88.8615 72.6267 88.6081 71.6533 88.6081 70.56C88.6081 69.4667 88.8615 68.4933 89.3681 67.64C89.8881 66.7867 90.5815 66.1133 91.4481 65.62C92.3148 65.1267 93.2881 64.88 94.3681 64.88C95.4348 64.88 96.4015 65.1267 97.2681 65.62C98.1348 66.1133 98.8215 66.7867 99.3281 67.64C99.8481 68.48 100.108 69.4533 100.108 70.56C100.108 71.6533 99.8481 72.6267 99.3281 73.48C98.8081 74.3333 98.1148 75.0067 97.2481 75.5C96.3815 75.9933 95.4215 76.24 94.3681 76.24ZM94.3681 73.84C94.9548 73.84 95.4681 73.7 95.9081 73.42C96.3615 73.14 96.7148 72.7533 96.9681 72.26C97.2348 71.7533 97.3681 71.1867 97.3681 70.56C97.3681 69.92 97.2348 69.36 96.9681 68.88C96.7148 68.3867 96.3615 68 95.9081 67.72C95.4681 67.4267 94.9548 67.28 94.3681 67.28C93.7681 67.28 93.2415 67.4267 92.7881 67.72C92.3348 68 91.9748 68.3867 91.7081 68.88C91.4548 69.36 91.3281 69.92 91.3281 70.56C91.3281 71.1867 91.4548 71.7533 91.7081 72.26C91.9748 72.7533 92.3348 73.14 92.7881 73.42C93.2415 73.7 93.7681 73.84 94.3681 73.84ZM107.415 76.24C106.348 76.24 105.375 75.9933 104.495 75.5C103.628 75.0067 102.935 74.3333 102.415 73.48C101.908 72.6267 101.655 71.6533 101.655 70.56C101.655 69.4667 101.908 68.4933 102.415 67.64C102.935 66.7867 103.628 66.1133 104.495 65.62C105.362 65.1267 106.335 64.88 107.415 64.88C108.482 64.88 109.448 65.1267 110.315 65.62C111.182 66.1133 111.868 66.7867 112.375 67.64C112.895 68.48 113.155 69.4533 113.155 70.56C113.155 71.6533 112.895 72.6267 112.375 73.48C111.855 74.3333 111.162 75.0067 110.295 75.5C109.428 75.9933 108.468 76.24 107.415 76.24ZM107.415 73.84C108.002 73.84 108.515 73.7 108.955 73.42C109.408 73.14 109.762 72.7533 110.015 72.26C110.282 71.7533 110.415 71.1867 110.415 70.56C110.415 69.92 110.282 69.36 110.015 68.88C109.762 68.3867 109.408 68 108.955 67.72C108.515 67.4267 108.002 67.28 107.415 67.28C106.815 67.28 106.288 67.4267 105.835 67.72C105.382 68 105.022 68.3867 104.755 68.88C104.502 69.36 104.375 69.92 104.375 70.56C104.375 71.1867 104.502 71.7533 104.755 72.26C105.022 72.7533 105.382 73.14 105.835 73.42C106.288 73.7 106.815 73.84 107.415 73.84ZM115.142 76V60.86H117.762V70.78L116.762 70.48L121.882 65.12H125.142L121.122 69.5L125.222 76H122.222L118.662 70.36L120.222 70.04L116.942 73.56L117.762 71.96V76H115.142ZM130.46 76V61.1H133.06L138.64 68.68H137.4L142.86 61.1H145.46V76H142.72V64.2L143.78 64.46L138.12 72H137.8L132.28 64.46L133.18 64.2V76H130.46ZM153.251 76.24C152.131 76.24 151.151 75.9867 150.311 75.48C149.471 74.9733 148.818 74.2867 148.351 73.42C147.884 72.5533 147.651 71.5933 147.651 70.54C147.651 69.4467 147.884 68.48 148.351 67.64C148.831 66.7867 149.478 66.1133 150.291 65.62C151.118 65.1267 152.038 64.88 153.051 64.88C153.904 64.88 154.651 65.02 155.291 65.3C155.944 65.58 156.498 65.9667 156.951 66.46C157.404 66.9533 157.751 67.52 157.991 68.16C158.231 68.7867 158.351 69.4667 158.351 70.2C158.351 70.3867 158.338 70.58 158.311 70.78C158.298 70.98 158.264 71.1533 158.211 71.3H149.811V69.3H156.731L155.491 70.24C155.611 69.6267 155.578 69.08 155.391 68.6C155.218 68.12 154.924 67.74 154.511 67.46C154.111 67.18 153.624 67.04 153.051 67.04C152.504 67.04 152.018 67.18 151.591 67.46C151.164 67.7267 150.838 68.1267 150.611 68.66C150.398 69.18 150.318 69.8133 150.371 70.56C150.318 71.2267 150.404 71.82 150.631 72.34C150.871 72.8467 151.218 73.24 151.671 73.52C152.138 73.8 152.671 73.94 153.271 73.94C153.871 73.94 154.378 73.8133 154.791 73.56C155.218 73.3067 155.551 72.9667 155.791 72.54L157.911 73.58C157.698 74.1 157.364 74.56 156.911 74.96C156.458 75.36 155.918 75.6733 155.291 75.9C154.678 76.1267 153.998 76.24 153.251 76.24ZM165.497 76.24C164.377 76.24 163.397 75.9867 162.557 75.48C161.717 74.9733 161.064 74.2867 160.597 73.42C160.131 72.5533 159.897 71.5933 159.897 70.54C159.897 69.4467 160.131 68.48 160.597 67.64C161.077 66.7867 161.724 66.1133 162.537 65.62C163.364 65.1267 164.284 64.88 165.297 64.88C166.151 64.88 166.897 65.02 167.537 65.3C168.191 65.58 168.744 65.9667 169.197 66.46C169.651 66.9533 169.997 67.52 170.237 68.16C170.477 68.7867 170.597 69.4667 170.597 70.2C170.597 70.3867 170.584 70.58 170.557 70.78C170.544 70.98 170.511 71.1533 170.457 71.3H162.057V69.3H168.977L167.737 70.24C167.857 69.6267 167.824 69.08 167.637 68.6C167.464 68.12 167.171 67.74 166.757 67.46C166.357 67.18 165.871 67.04 165.297 67.04C164.751 67.04 164.264 67.18 163.837 67.46C163.411 67.7267 163.084 68.1267 162.857 68.66C162.644 69.18 162.564 69.8133 162.617 70.56C162.564 71.2267 162.651 71.82 162.877 72.34C163.117 72.8467 163.464 73.24 163.917 73.52C164.384 73.8 164.917 73.94 165.517 73.94C166.117 73.94 166.624 73.8133 167.037 73.56C167.464 73.3067 167.797 72.9667 168.037 72.54L170.157 73.58C169.944 74.1 169.611 74.56 169.157 74.96C168.704 75.36 168.164 75.6733 167.537 75.9C166.924 76.1267 166.244 76.24 165.497 76.24ZM177.543 76.12C176.317 76.12 175.363 75.7867 174.683 75.12C174.017 74.44 173.683 73.4867 173.683 72.26V67.46H171.803V65.12H172.003C172.537 65.12 172.95 64.98 173.243 64.7C173.537 64.42 173.683 64.0133 173.683 63.48V62.64H176.303V65.12H178.803V67.46H176.303V72.12C176.303 72.48 176.363 72.7867 176.483 73.04C176.617 73.2933 176.817 73.4867 177.083 73.62C177.363 73.7533 177.717 73.82 178.143 73.82C178.237 73.82 178.343 73.8133 178.463 73.8C178.597 73.7867 178.723 73.7733 178.843 73.76V76C178.657 76.0267 178.443 76.0533 178.203 76.08C177.963 76.1067 177.743 76.12 177.543 76.12ZM180.845 76V65.12H183.465V76H180.845ZM180.845 63.9V61.1H183.465V63.9H180.845ZM185.884 76V65.12H188.344V67.26L188.144 66.88C188.397 66.2267 188.811 65.7333 189.384 65.4C189.971 65.0533 190.651 64.88 191.424 64.88C192.224 64.88 192.931 65.0533 193.544 65.4C194.171 65.7467 194.657 66.2333 195.004 66.86C195.351 67.4733 195.524 68.1867 195.524 69V76H192.904V69.62C192.904 69.14 192.811 68.7267 192.624 68.38C192.437 68.0333 192.177 67.7667 191.844 67.58C191.524 67.38 191.144 67.28 190.704 67.28C190.277 67.28 189.897 67.38 189.564 67.58C189.231 67.7667 188.971 68.0333 188.784 68.38C188.597 68.7267 188.504 69.14 188.504 69.62V76H185.884ZM203.02 80.4C202.206 80.4 201.453 80.2667 200.76 80C200.066 79.7333 199.466 79.36 198.96 78.88C198.466 78.4133 198.106 77.86 197.88 77.22L200.32 76.3C200.48 76.8067 200.793 77.2133 201.26 77.52C201.74 77.84 202.326 78 203.02 78C203.553 78 204.02 77.9 204.42 77.7C204.833 77.5 205.153 77.2067 205.38 76.82C205.606 76.4467 205.72 75.9933 205.72 75.46V72.98L206.22 73.58C205.846 74.2333 205.346 74.7267 204.72 75.06C204.093 75.3933 203.38 75.56 202.58 75.56C201.566 75.56 200.66 75.3267 199.86 74.86C199.06 74.3933 198.433 73.7533 197.98 72.94C197.526 72.1267 197.3 71.2133 197.3 70.2C197.3 69.1733 197.526 68.26 197.98 67.46C198.433 66.66 199.053 66.0333 199.84 65.58C200.626 65.1133 201.52 64.88 202.52 64.88C203.333 64.88 204.046 65.0533 204.66 65.4C205.286 65.7333 205.806 66.22 206.22 66.86L205.86 67.52V65.12H208.34V75.46C208.34 76.4067 208.106 77.2533 207.64 78C207.186 78.7467 206.56 79.3333 205.76 79.76C204.973 80.1867 204.06 80.4 203.02 80.4ZM202.9 73.14C203.46 73.14 203.946 73.02 204.36 72.78C204.786 72.5267 205.12 72.18 205.36 71.74C205.6 71.3 205.72 70.7933 205.72 70.22C205.72 69.66 205.593 69.16 205.34 68.72C205.1 68.2667 204.766 67.9133 204.34 67.66C203.926 67.4067 203.446 67.28 202.9 67.28C202.353 67.28 201.86 67.4067 201.42 67.66C200.98 67.9133 200.633 68.2667 200.38 68.72C200.14 69.16 200.02 69.66 200.02 70.22C200.02 70.78 200.14 71.28 200.38 71.72C200.633 72.16 200.973 72.5067 201.4 72.76C201.84 73.0133 202.34 73.14 202.9 73.14Z" fill="white"/>
<rect x="247" y="11" width="40" height="40" rx="20" fill="url(#paint1_radial_0_2864)"/>
<path d="M262 36L272 26" stroke="white" stroke-width="2" stroke-linecap="round" stroke-linejoin="round"/>
<path d="M262 26H272V36" stroke="white" stroke-width="2" stroke-linecap="round" stroke-linejoin="round"/>
<defs>
<linearGradient id="paint0_linear_0_2864" x1="0" y1="68" x2="300" y2="68" gradientUnits="userSpaceOnUse">
<stop stop-color="#FF3BFF"/>
<stop offset="0.380208" stop-color="#ECBFBF"/>
<stop offset="0.758263" stop-color="#5C24FF"/>
<stop offset="1" stop-color="#D94FD5"/>
</linearGradient>
<radialGradient id="paint1_radial_0_2864" cx="0" cy="0" r="1" gradientUnits="userSpaceOnUse" gradientTransform="translate(282.432 20.641) rotate(125.815) scale(49.5799 45.1714)">
<stop stop-color="#7388FF"/>
<stop offset="0.503425" stop-color="#CA73FF"/>
<stop offset="1" stop-color="#FF739D"/>
</radialGradient>
</defs>
</svg>
