<svg width="3809" height="481" viewBox="0 0 3809 481" fill="none" xmlns="http://www.w3.org/2000/svg">
<g id="Group">
<g id="Group 8">
<path id="Vector" d="M3560.9 145.082C3560.9 145.082 3104.39 350.336 2374.7 272.646C1748.36 205.969 1669.71 142.019 1274.96 142.019C913.784 142.019 604.308 305.915 107.771 222.649" stroke="#3F51B5" stroke-miterlimit="10" stroke-linecap="round" stroke-linejoin="round"/>
<path id="Vector_2" d="M3561.62 147.854C3561.62 147.854 3098.83 341.528 2382.68 271.16C1765.17 211.299 1671.49 153.66 1276.57 150.443C907.841 147.441 593.781 301.396 111.125 229.696" stroke="#4650B8" stroke-miterlimit="10" stroke-linecap="round" stroke-linejoin="round"/>
<path id="Vector_3" d="M3562.35 150.611C3562.35 150.611 3093.91 331.847 2390.66 269.674C1782.49 215.894 1673.23 165.239 1278.18 158.883C901.856 152.817 583.254 296.877 114.478 236.757" stroke="#4E4FBB" stroke-miterlimit="10" stroke-linecap="round" stroke-linejoin="round"/>
<path id="Vector_4" d="M3563.11 153.383C3563.11 153.383 3088.56 322.64 2398.64 268.187C1799.42 220.887 1674.93 176.742 1279.8 167.306C895.828 158.147 572.685 292.343 117.788 243.802" stroke="#554FBF" stroke-miterlimit="10" stroke-linecap="round" stroke-linejoin="round"/>
<path id="Vector_5" d="M3563.83 156.142C3563.83 156.142 3083.13 313.452 2406.62 266.687C1816.32 225.882 1676.63 188.17 1281.41 175.733C889.716 163.402 562.158 287.81 121.142 250.865" stroke="#5C4EC2" stroke-miterlimit="10" stroke-linecap="round" stroke-linejoin="round"/>
<path id="Vector_6" d="M3564.55 158.913C3564.55 158.913 3077.65 304.306 2414.6 265.216C1833.13 230.936 1678.28 199.55 1283.02 184.172C883.647 168.624 551.632 283.291 124.538 257.91" stroke="#644DC5" stroke-miterlimit="10" stroke-linecap="round" stroke-linejoin="round"/>
<path id="Vector_7" d="M3565.27 161.67C3565.27 161.67 3072.05 295.161 2422.58 263.715C1849.89 235.975 1679.94 210.839 1284.64 192.596C877.534 173.801 541.105 278.772 127.849 264.971" stroke="#6B4CC8" stroke-miterlimit="10" stroke-linecap="round" stroke-linejoin="round"/>
<path id="Vector_8" d="M3566 164.442C3566 164.442 3066.4 286.093 2430.56 262.229C1866.57 241.075 1681.59 222.097 1286.25 201.02C871.422 178.902 530.578 274.238 131.201 272.017" stroke="#724CCB" stroke-miterlimit="10" stroke-linecap="round" stroke-linejoin="round"/>
<path id="Vector_9" d="M3566.72 167.2C3566.72 167.2 3060.72 277.041 2438.54 260.744C1883.21 246.192 1683.25 233.295 1287.86 209.461C865.31 183.973 520.052 269.72 134.555 279.079" stroke="#7A4BCE" stroke-miterlimit="10" stroke-linecap="round" stroke-linejoin="round"/>
<path id="Vector_10" d="M3567.44 169.974C3567.44 169.974 3054.94 268.051 2446.52 259.259C1899.81 251.355 1684.9 244.447 1289.48 217.887C859.24 188.983 509.483 265.187 137.908 286.141" stroke="#814AD2" stroke-miterlimit="10" stroke-linecap="round" stroke-linejoin="round"/>
<path id="Vector_11" d="M3568.2 172.73C3568.2 172.73 3049.17 259.105 2454.54 257.757C1916.41 256.547 1686.64 255.536 1291.13 226.296C853.212 193.93 498.998 260.652 141.304 293.171" stroke="#8849D5" stroke-miterlimit="10" stroke-linecap="round" stroke-linejoin="round"/>
<path id="Vector_12" d="M3568.92 175.502C3568.92 175.502 3043.31 250.22 2462.52 256.286C1932.92 261.816 1688.34 266.61 1292.74 234.75C847.142 198.846 488.471 256.133 144.656 300.232" stroke="#9049D8" stroke-miterlimit="10" stroke-linecap="round" stroke-linejoin="round"/>
<path id="Vector_13" d="M3569.65 178.26C3569.65 178.26 3037.45 241.383 2470.46 254.786C1949.34 267.101 1690.08 277.609 1294.31 243.16C841.115 203.702 477.903 251.6 147.968 307.278" stroke="#9748DB" stroke-miterlimit="10" stroke-linecap="round" stroke-linejoin="round"/>
<path id="Vector_14" d="M3570.37 181.032C3570.37 181.032 3031.6 232.621 2478.44 253.3C1965.86 272.462 1691.87 288.591 1295.97 251.6C835.215 208.542 467.418 247.096 151.363 314.34" stroke="#9E47DE" stroke-miterlimit="10" stroke-linecap="round" stroke-linejoin="round"/>
<path id="Vector_15" d="M3571.09 183.789C3571.09 183.789 3025.74 223.905 2486.42 251.798C1982.37 277.869 1693.69 299.527 1297.58 260.009C829.273 213.29 456.892 242.547 154.717 321.37" stroke="#A546E2" stroke-miterlimit="10" stroke-linecap="round" stroke-linejoin="round"/>
<path id="Vector_16" d="M3571.81 186.563C3571.81 186.563 3019.97 215.283 2494.4 250.329C1998.92 283.369 1695.56 310.465 1299.19 268.465C823.415 218.04 446.322 238.029 158.069 328.448" stroke="#AD45E5" stroke-miterlimit="10" stroke-linecap="round" stroke-linejoin="round"/>
<path id="Vector_17" d="M3572.58 189.318C3572.58 189.318 3014.24 206.704 2502.42 248.827C2015.56 288.897 1697.51 321.339 1300.85 276.873C817.643 222.726 435.796 233.509 161.424 335.493" stroke="#B445E8" stroke-miterlimit="10" stroke-linecap="round" stroke-linejoin="round"/>
<path id="Vector_18" d="M3573.3 192.092C3573.3 192.092 3008.59 198.203 2510.4 247.342C2032.28 294.504 1699.46 332.2 1302.46 285.314C811.87 227.383 425.269 228.976 164.776 342.555" stroke="#BB44EB" stroke-miterlimit="10" stroke-linecap="round" stroke-linejoin="round"/>
<path id="Vector_19" d="M3574.02 194.847C3574.02 194.847 3003.07 189.731 2518.38 245.854C2049.09 300.185 1701.46 343.028 1304.08 293.737C806.225 231.977 414.785 224.456 168.13 349.599" stroke="#C343EE" stroke-miterlimit="10" stroke-linecap="round" stroke-linejoin="round"/>
<path id="Vector_20" d="M3574.74 197.62C3574.74 197.62 2997.68 181.353 2526.36 244.369C2066.03 305.915 1703.5 353.843 1305.69 302.177C800.579 236.557 404.216 219.938 171.483 356.661" stroke="#CA42F1" stroke-miterlimit="10" stroke-linecap="round" stroke-linejoin="round"/>
<path id="Vector_21" d="M3575.46 200.378C3575.46 200.378 2992.46 172.991 2534.3 242.869C2083.13 311.69 1705.53 364.627 1307.26 310.587C795.018 241.092 393.688 215.405 174.793 363.708" stroke="#D142F5" stroke-miterlimit="10" stroke-linecap="round" stroke-linejoin="round"/>
<path id="Vector_22" d="M3576.18 203.15C3576.18 203.15 2987.41 164.688 2542.28 241.398C2100.41 317.525 1707.7 375.425 1308.87 319.042C789.543 245.61 383.12 210.901 178.147 370.784" stroke="#D941F8" stroke-miterlimit="10" stroke-linecap="round" stroke-linejoin="round"/>
<path id="Vector_23" d="M3576.95 205.907C3576.95 205.907 2982.66 156.401 2550.3 239.897C2117.98 323.392 1709.95 386.178 1310.53 327.451C784.152 250.067 372.636 206.352 181.543 377.815" stroke="#E040FB" stroke-miterlimit="10" stroke-linecap="round" stroke-linejoin="round"/>
<path id="Vector_24" opacity="0.9545" d="M3587.47 212.754C3587.47 212.754 3000.74 171.167 2556.16 246.59C2120.83 320.451 1711.14 385.412 1312.48 332.628C787.125 263.072 368.053 217.38 174.965 373.572" stroke="#DA43FB" stroke-miterlimit="10" stroke-linecap="round" stroke-linejoin="round"/>
<path id="Vector_25" opacity="0.9091" d="M3598.04 219.603C3598.04 219.603 3019.8 185.935 2562.06 253.286C2124.56 317.649 1712.37 384.648 1314.48 337.807C790.138 276.078 363.51 228.41 168.47 369.346" stroke="#D447FB" stroke-miterlimit="10" stroke-linecap="round" stroke-linejoin="round"/>
<path id="Vector_26" opacity="0.8636" d="M3608.57 226.448C3608.57 226.448 3039.62 200.791 2567.91 259.978C2129.02 315.044 1713.56 383.896 1316.47 342.983C793.152 289.065 358.969 239.437 161.934 365.101" stroke="#CE4AFB" stroke-miterlimit="10" stroke-linecap="round" stroke-linejoin="round"/>
<path id="Vector_27" opacity="0.8182" d="M3619.14 233.28C3619.14 233.28 3060.29 215.757 2573.81 266.657C2134.24 312.639 1714.79 383.115 1318.47 348.145C796.164 302.055 354.384 250.435 155.396 360.859" stroke="#C94DFB" stroke-miterlimit="10" stroke-linecap="round" stroke-linejoin="round"/>
<path id="Vector_28" opacity="0.7727" d="M3629.67 240.126C3629.67 240.126 3081.64 230.92 2579.67 273.35C2140.06 310.51 1715.98 382.364 1320.42 353.322C799.137 315.059 349.8 261.463 148.817 356.615" stroke="#C350FB" stroke-miterlimit="10" stroke-linecap="round" stroke-linejoin="round"/>
<path id="Vector_29" opacity="0.7273" d="M3640.23 246.974C3640.23 246.974 3103.59 246.284 2585.57 280.044C2146.42 308.657 1717.25 381.599 1322.41 358.5C802.108 328.064 345.259 272.493 142.323 352.388" stroke="#BD54FB" stroke-miterlimit="10" stroke-linecap="round" stroke-linejoin="round"/>
<path id="Vector_30" opacity="0.6818" d="M3650.76 253.821C3650.76 253.821 3125.96 261.924 2591.39 286.738C2153.13 307.08 1718.39 380.849 1324.32 363.678C805.078 341.054 340.674 283.522 135.743 348.146" stroke="#B757FB" stroke-miterlimit="10" stroke-linecap="round" stroke-linejoin="round"/>
<path id="Vector_31" opacity="0.6364" d="M3661.33 260.652C3661.33 260.652 3148.71 277.823 2597.29 293.416C2160.18 305.777 1719.63 380.067 1326.36 368.839C808.093 354.043 336.09 294.534 129.207 343.903" stroke="#B15AFB" stroke-miterlimit="10" stroke-linecap="round" stroke-linejoin="round"/>
<path id="Vector_32" opacity="0.5909" d="M3671.86 267.498C3671.86 267.498 3171.63 294.058 2603.15 300.109C2167.35 304.75 1720.82 379.315 1328.31 374.015C811.064 367.046 331.507 305.547 122.671 339.658" stroke="#AB5DFB" stroke-miterlimit="10" stroke-linecap="round" stroke-linejoin="round"/>
<path id="Vector_33" opacity="0.5455" d="M3682.43 274.346C3682.43 274.346 3194.68 310.602 2609.05 306.803C2174.61 303.985 1722.05 378.55 1330.31 379.193C814.078 380.051 326.964 316.576 116.134 335.432" stroke="#A561FB" stroke-miterlimit="10" stroke-linecap="round" stroke-linejoin="round"/>
<path id="Vector_34" opacity="0.5" d="M3692.95 281.193C3692.95 281.193 3217.6 327.483 2614.9 313.498C2181.78 303.45 1723.28 377.8 1332.3 384.387C817.048 393.057 322.422 327.62 109.597 331.205" stroke="#9F64FB" stroke-miterlimit="10" stroke-linecap="round" stroke-linejoin="round"/>
<path id="Vector_35" opacity="0.4545" d="M3703.52 288.024C3703.52 288.024 3240.39 344.653 2620.8 320.176C2188.87 303.112 1724.51 377.019 1334.3 389.533C820.062 406.045 317.838 338.633 103.06 326.961" stroke="#9A67FA" stroke-miterlimit="10" stroke-linecap="round" stroke-linejoin="round"/>
<path id="Vector_36" opacity="0.4091" d="M3714.05 294.87C3714.05 294.87 3262.84 362.16 2626.66 326.884C2195.74 302.988 1725.69 376.282 1336.25 394.724C823.033 419.048 313.253 349.661 96.5225 322.717" stroke="#946BFA" stroke-miterlimit="10" stroke-linecap="round" stroke-linejoin="round"/>
<path id="Vector_37" opacity="0.3636" d="M3724.62 301.719C3724.62 301.719 3285 379.96 2632.56 333.579C2202.37 302.99 1726.93 375.518 1338.25 399.919C826.047 432.07 308.712 360.706 89.9863 318.491" stroke="#8E6EFA" stroke-miterlimit="10" stroke-linecap="round" stroke-linejoin="round"/>
<path id="Vector_38" opacity="0.3182" d="M3735.14 308.565C3735.14 308.565 3306.65 398.019 2638.42 340.272C2208.69 303.143 1728.11 374.767 1340.2 405.096C829.018 445.059 304.128 371.719 83.4072 314.264" stroke="#8871FA" stroke-miterlimit="10" stroke-linecap="round" stroke-linejoin="round"/>
<path id="Vector_39" opacity="0.2727" d="M3745.71 315.397C3745.71 315.397 3327.92 416.308 2644.28 346.951C2214.68 303.372 1729.3 373.986 1342.19 410.257C832.032 458.048 299.544 382.732 76.8711 310.005" stroke="#8274FA" stroke-miterlimit="10" stroke-linecap="round" stroke-linejoin="round"/>
<path id="Vector_40" opacity="0.2273" d="M3756.24 322.244C3756.24 322.244 3348.54 434.811 2650.13 353.644C2220.36 303.694 1730.49 373.22 1344.15 415.435C834.961 471.052 294.96 393.761 70.334 305.777" stroke="#7C78FA" stroke-miterlimit="10" stroke-linecap="round" stroke-linejoin="round"/>
<path id="Vector_41" opacity="0.1818" d="M3766.81 329.09C3766.81 329.09 3368.75 453.514 2656.03 360.338C2225.76 304.077 1731.77 372.469 1346.14 420.612C837.975 484.057 290.418 404.789 63.7979 301.534" stroke="#767BFA" stroke-miterlimit="10" stroke-linecap="round" stroke-linejoin="round"/>
<path id="Vector_42" opacity="0.1364" d="M3777.34 335.937C3777.34 335.937 3388.32 472.354 2661.89 367.032C2230.72 304.521 1732.95 371.703 1348.09 425.789C840.947 497.046 285.834 415.818 57.2188 297.307" stroke="#717EFA" stroke-miterlimit="10" stroke-linecap="round" stroke-linejoin="round"/>
<path id="Vector_43" opacity="0.0909" d="M3787.9 342.785C3787.9 342.785 3407.37 491.333 2667.79 373.726C2235.43 304.966 1734.18 370.938 1350.13 430.952C844.001 510.035 281.291 426.831 50.7656 293.049" stroke="#6B81FA" stroke-miterlimit="10" stroke-linecap="round" stroke-linejoin="round"/>
<path id="Vector_44" opacity="0.0455" d="M3798.43 349.616C3798.43 349.616 3425.92 510.403 2673.65 380.404C2239.81 305.425 1735.37 370.172 1352.08 436.129C846.974 523.04 276.708 437.845 44.1875 288.821" stroke="#6585FA" stroke-miterlimit="10" stroke-linecap="round" stroke-linejoin="round"/>
</g>
<g id="A">
<path id="Vector_45" d="M3745.33 264.823C3745.33 264.823 3497.66 92.5478 2927.73 100.62C2357.81 108.692 2187.89 282.652 1512.19 286.313C836.532 289.959 426.756 -3.72223 61.0811 0.81173" stroke="#E27FA7" stroke-miterlimit="10" stroke-linecap="round" stroke-linejoin="round"/>
<path id="Vector_46" opacity="0.9545" d="M3743.76 258.191C3743.97 258.405 3484.75 102.045 2914.28 107.942C2343.8 113.839 2180.68 283.204 1501.03 288.213C821.336 293.237 419.879 6.15762 58.2793 7.94976" stroke="#DB7AA6" stroke-miterlimit="10" stroke-linecap="round" stroke-linejoin="round"/>
<path id="Vector_47" opacity="0.9091" d="M3742.15 251.558C3742.61 251.986 3471.85 111.556 2900.78 115.279C2329.75 119.016 2173.46 283.755 1489.78 290.142C806.139 296.53 412.959 16.0369 55.5195 15.1025" stroke="#D475A5" stroke-miterlimit="10" stroke-linecap="round" stroke-linejoin="round"/>
<path id="Vector_48" opacity="0.8636" d="M3740.58 244.926C3741.26 245.569 3458.95 121.054 2887.32 122.616C2315.7 124.179 2166.25 284.322 1478.62 292.058C790.944 299.808 406.041 25.9021 52.7188 22.2412" stroke="#CD70A3" stroke-miterlimit="10" stroke-linecap="round" stroke-linejoin="round"/>
<path id="Vector_49" opacity="0.8182" d="M3739.01 238.294C3739.9 239.137 3446.04 130.551 2873.91 129.954C2301.73 129.357 2159.11 284.875 1467.45 293.988C775.79 303.102 399.164 35.7826 49.959 29.3799" stroke="#C66CA2" stroke-miterlimit="10" stroke-linecap="round" stroke-linejoin="round"/>
<path id="Vector_50" opacity="0.7727" d="M3737.39 231.66C3738.54 232.717 3433.14 140.062 2860.41 137.289C2287.68 134.517 2151.86 285.439 1456.2 295.917C760.595 306.394 392.246 45.6604 47.2002 36.5312" stroke="#BF67A1" stroke-miterlimit="10" stroke-linecap="round" stroke-linejoin="round"/>
<path id="Vector_51" opacity="0.7273" d="M3735.82 225.028C3737.18 226.3 3420.23 149.559 2846.96 144.627C2273.68 139.695 2144.68 285.992 1445.04 297.832C745.398 309.672 385.327 55.5409 44.3984 43.6699" stroke="#B962A0" stroke-miterlimit="10" stroke-linecap="round" stroke-linejoin="round"/>
<path id="Vector_52" opacity="0.6818" d="M3734.25 218.396C3735.82 219.882 3407.38 159.056 2833.5 151.964C2259.67 144.857 2137.47 286.558 1433.84 299.762C730.204 312.966 378.41 65.4207 41.5986 50.8232" stroke="#B25D9E" stroke-miterlimit="10" stroke-linecap="round" stroke-linejoin="round"/>
<path id="Vector_53" opacity="0.6364" d="M3732.64 211.765C3734.46 213.465 3394.43 168.569 2820 159.287C2245.58 150.02 2130.25 287.096 1422.63 301.662C715.008 316.229 371.49 75.271 38.8389 57.9316" stroke="#AB589D" stroke-miterlimit="10" stroke-linecap="round" stroke-linejoin="round"/>
<path id="Vector_54" opacity="0.5909" d="M3731.07 205.131C3733.11 207.046 3381.52 178.066 2806.59 166.624C2231.61 155.181 2123.08 287.662 1411.47 303.592C699.855 319.522 364.614 85.1654 36.0801 65.0996" stroke="#A4539C" stroke-miterlimit="10" stroke-linecap="round" stroke-linejoin="round"/>
<path id="Vector_55" opacity="0.5455" d="M3729.5 198.498C3731.75 200.612 3368.66 187.561 2793.13 173.959C2217.6 160.357 2115.9 288.212 1400.3 305.505C684.701 322.799 357.737 95.044 33.3203 72.2363" stroke="#9D4E9B" stroke-miterlimit="10" stroke-linecap="round" stroke-linejoin="round"/>
<path id="Vector_56" opacity="0.5" d="M3727.93 191.866C3730.43 194.194 3355.76 197.074 2779.68 181.297C2203.6 165.52 2108.73 288.764 1389.1 307.436C669.462 326.108 350.818 104.924 30.5186 79.375" stroke="#96499A" stroke-miterlimit="10" stroke-linecap="round" stroke-linejoin="round"/>
<path id="Vector_57" opacity="0.4545" d="M3726.32 185.234C3729.03 187.777 3342.86 206.571 2766.18 188.634C2189.55 170.698 2101.47 289.331 1377.85 309.366C654.224 329.401 343.9 114.804 27.7598 86.5283" stroke="#8F4598" stroke-miterlimit="10" stroke-linecap="round" stroke-linejoin="round"/>
<path id="Vector_58" opacity="0.4091" d="M3724.74 178.602C3727.71 181.359 3329.95 216.069 2752.77 195.972C2175.54 175.876 2094.3 289.898 1366.68 311.282C639.07 332.68 337.023 124.669 24.958 93.667" stroke="#884097" stroke-miterlimit="10" stroke-linecap="round" stroke-linejoin="round"/>
<path id="Vector_59" opacity="0.3636" d="M3723.17 171.968C3726.36 174.94 3317.05 225.579 2739.31 203.308C2161.53 181.036 2087.13 290.449 1355.52 313.21C623.917 335.972 330.104 134.548 22.1992 100.804" stroke="#813B96" stroke-miterlimit="10" stroke-linecap="round" stroke-linejoin="round"/>
<path id="Vector_60" opacity="0.3182" d="M3721.56 165.336C3724.96 168.522 3304.14 235.076 2725.81 210.645C2147.48 186.214 2079.91 291 1344.31 315.125C608.721 339.25 323.185 144.428 19.4395 107.957" stroke="#7A3695" stroke-miterlimit="10" stroke-linecap="round" stroke-linejoin="round"/>
<path id="Vector_61" opacity="0.2727" d="M3719.99 158.703C3723.64 162.089 3291.24 244.573 2712.36 217.967C2133.48 191.36 2072.69 291.551 1333.11 317.04C593.527 342.543 316.31 154.307 16.6396 115.095" stroke="#733193" stroke-miterlimit="10" stroke-linecap="round" stroke-linejoin="round"/>
<path id="Vector_62" opacity="0.2273" d="M3718.42 152.072C3722.28 155.671 3278.38 254.086 2698.9 225.304C2119.47 196.538 2065.52 292.104 1321.9 318.955C578.33 345.822 309.391 164.188 13.8799 122.233" stroke="#6D2C92" stroke-miterlimit="10" stroke-linecap="round" stroke-linejoin="round"/>
<path id="Vector_63" opacity="0.1818" d="M3716.81 145.455C3720.88 149.269 3265.43 263.598 2685.45 232.657C2105.42 201.716 2058.3 292.686 1310.74 320.9C563.134 349.115 302.472 174.068 11.0781 129.387" stroke="#662791" stroke-miterlimit="10" stroke-linecap="round" stroke-linejoin="round"/>
<path id="Vector_64" opacity="0.1364" d="M3715.24 138.821C3719.57 142.85 3252.57 273.094 2671.99 239.993C2091.41 206.892 2051.13 293.236 1299.53 322.829C547.981 352.407 295.596 183.931 8.31934 136.523" stroke="#5F2390" stroke-miterlimit="10" stroke-linecap="round" stroke-linejoin="round"/>
<path id="Vector_65" opacity="0.0909" d="M3713.67 132.189C3718.21 136.432 3239.67 282.607 2658.54 247.331C2077.4 212.055 2043.91 293.804 1288.37 324.745C532.785 355.686 288.677 193.811 5.51758 143.662" stroke="#581E8E" stroke-miterlimit="10" stroke-linecap="round" stroke-linejoin="round"/>
<path id="Vector_66" opacity="0.0455" d="M3712.05 125.558C3716.81 130.015 3226.72 292.104 2645.04 254.668C2063.35 217.232 2036.7 294.356 1277.12 326.675C517.59 358.98 281.758 203.692 2.75879 150.816" stroke="#51198D" stroke-miterlimit="10" stroke-linecap="round" stroke-linejoin="round"/>
<path id="Vector_67" opacity="0.0455" d="M3806.11 188.787C3806.11 188.787 3448.46 344.688 2690.84 210.569C2250.25 132.573 1756.43 201.455 1361.29 270.751C848.459 360.68 279.212 264.793 38.7119 108.172" stroke="#6588F6" stroke-miterlimit="10" stroke-linecap="round" stroke-linejoin="round"/>
<path id="Vector_68" opacity="0.0909" d="M3803.23 192.418C3803.23 192.418 3452.58 331.255 2702.13 205.346C2256.4 130.566 1776.42 204.84 1368.47 271.502C847.143 356.697 286.215 252.018 39.7725 103.071" stroke="#6B87F2" stroke-miterlimit="10" stroke-linecap="round" stroke-linejoin="round"/>
<path id="Vector_69" opacity="0.1364" d="M3800.3 196.032C3800.3 196.032 3456.36 317.928 2713.38 200.091C2262.39 128.574 1796.5 208.225 1375.64 272.221C846.04 352.76 293.262 239.212 40.834 97.9395" stroke="#7187EF" stroke-miterlimit="10" stroke-linecap="round" stroke-linejoin="round"/>
<path id="Vector_70" opacity="0.1818" d="M3797.41 199.647C3797.41 199.647 3459.84 304.74 2724.67 194.853C2268.2 126.629 1816.74 211.687 1382.81 272.972C845.063 348.916 300.265 226.437 41.8945 92.8389" stroke="#7786EB" stroke-miterlimit="10" stroke-linecap="round" stroke-linejoin="round"/>
<path id="Vector_71" opacity="0.2273" d="M3794.53 203.278C3794.53 203.278 3463.06 291.706 2735.96 189.63C2273.89 124.761 1837.07 215.211 1390.03 273.723C844.257 345.148 307.311 213.648 42.9561 87.7236" stroke="#7D86E7" stroke-miterlimit="10" stroke-linecap="round" stroke-linejoin="round"/>
<path id="Vector_72" opacity="0.2727" d="M3791.64 206.892C3791.64 206.892 3465.95 278.792 2747.25 184.391C2279.41 122.937 1857.49 218.763 1397.25 274.457C843.535 341.456 314.315 200.857 44.0596 82.6064" stroke="#8386E3" stroke-miterlimit="10" stroke-linecap="round" stroke-linejoin="round"/>
<path id="Vector_73" opacity="0.3182" d="M3788.75 210.522C3788.75 210.522 3468.62 266.048 2758.5 179.168C2284.71 121.206 1877.95 222.378 1404.38 275.208C842.941 337.825 321.361 188.082 45.1211 77.5059" stroke="#8985E0" stroke-miterlimit="10" stroke-linecap="round" stroke-linejoin="round"/>
<path id="Vector_74" opacity="0.3636" d="M3785.87 214.138C3785.87 214.138 3471.04 253.427 2769.79 173.914C2289.93 119.507 1898.54 226.04 1411.59 275.929C842.431 334.257 328.407 175.293 46.1816 72.3906" stroke="#8F85DC" stroke-miterlimit="10" stroke-linecap="round" stroke-linejoin="round"/>
<path id="Vector_75" opacity="0.4091" d="M3782.94 217.753C3782.94 217.753 3473.25 240.974 2781.04 168.676C2295.03 117.914 1919.12 229.746 1418.72 276.664C841.965 330.765 335.411 162.503 47.2432 67.2744" stroke="#9584D8" stroke-miterlimit="10" stroke-linecap="round" stroke-linejoin="round"/>
<path id="Vector_76" opacity="0.4545" d="M3780.05 221.383C3780.05 221.383 3475.29 228.689 2792.33 163.452C2299.99 116.428 1939.79 233.53 1425.94 277.429C841.539 327.333 342.456 149.713 48.3037 62.1582" stroke="#9B84D4" stroke-miterlimit="10" stroke-linecap="round" stroke-linejoin="round"/>
<path id="Vector_77" opacity="0.5" d="M3777.17 224.998C3777.17 224.998 3477.2 216.527 2803.62 158.214C2304.88 115.019 1960.51 237.359 1433.11 278.165C841.116 323.964 349.461 136.938 49.3232 57.0576" stroke="#A184D1" stroke-miterlimit="10" stroke-linecap="round" stroke-linejoin="round"/>
<path id="Vector_78" opacity="0.5455" d="M3774.28 228.614C3774.28 228.614 3478.94 204.535 2814.91 152.976C2309.67 113.733 1981.22 241.235 1440.33 278.901C840.776 320.641 356.507 124.149 50.4268 51.9424" stroke="#A683CD" stroke-miterlimit="10" stroke-linecap="round" stroke-linejoin="round"/>
<path id="Vector_79" opacity="0.5909" d="M3771.39 232.243C3771.39 232.243 3480.64 192.708 2826.2 147.736C2314.38 112.568 2001.94 245.171 1447.5 279.635C840.436 317.377 363.51 111.358 51.4873 46.8252" stroke="#AC83C9" stroke-miterlimit="10" stroke-linecap="round" stroke-linejoin="round"/>
<path id="Vector_80" opacity="0.6364" d="M3768.46 235.858C3768.46 235.858 3482.25 181.022 2837.45 142.499C2319.05 111.527 2022.65 249.154 1454.68 280.371C840.097 314.176 370.556 98.5682 52.5488 41.71" stroke="#B282C5" stroke-miterlimit="10" stroke-linecap="round" stroke-linejoin="round"/>
<path id="Vector_81" opacity="0.6818" d="M3765.58 239.472C3765.58 239.472 3483.86 169.487 2848.74 137.259C2323.68 110.622 2043.36 253.181 1461.89 281.12C839.758 311.004 377.603 85.777 53.6104 36.5928" stroke="#B882C1" stroke-miterlimit="10" stroke-linecap="round" stroke-linejoin="round"/>
<path id="Vector_82" opacity="0.7273" d="M3762.69 243.102C3762.69 243.102 3485.52 158.106 2860.03 132.036C2328.35 109.871 2064.08 257.271 1469.07 281.871C839.375 307.88 384.606 73.0024 54.6709 31.4922" stroke="#BE81BE" stroke-miterlimit="10" stroke-linecap="round" stroke-linejoin="round"/>
<path id="Vector_83" opacity="0.7727" d="M3759.81 246.718C3759.81 246.718 3487.22 146.864 2871.32 126.798C2333.02 109.26 2084.79 261.392 1476.28 282.607C838.993 304.817 391.652 60.2131 55.7324 26.377" stroke="#C481BA" stroke-miterlimit="10" stroke-linecap="round" stroke-linejoin="round"/>
<path id="Vector_84" opacity="0.8182" d="M3756.92 250.347C3756.92 250.347 3489 135.757 2882.61 121.558C2337.77 108.799 2105.46 265.573 1483.46 283.341C838.569 301.768 398.656 47.4219 56.7939 21.2598" stroke="#CA81B6" stroke-miterlimit="10" stroke-linecap="round" stroke-linejoin="round"/>
<path id="Vector_85" opacity="0.8636" d="M3754.03 253.963C3754.03 253.963 3490.87 124.776 2893.9 116.32C2342.61 108.509 2126.13 269.77 1490.67 284.077C838.102 298.766 405.702 34.6327 57.8545 16.1445" stroke="#D080B2" stroke-miterlimit="10" stroke-linecap="round" stroke-linejoin="round"/>
<path id="Vector_86" opacity="0.9091" d="M3751.1 257.578C3751.1 257.578 3492.9 113.916 2905.15 111.082C2347.49 108.386 2146.72 274.029 1497.8 284.812C837.635 295.795 412.705 21.8427 58.958 11.0439" stroke="#D680AF" stroke-miterlimit="10" stroke-linecap="round" stroke-linejoin="round"/>
<path id="Vector_87" opacity="0.9545" d="M3748.22 261.209C3748.22 261.209 3495.15 103.194 2916.44 105.86C2352.54 108.464 2167.31 278.334 1505.02 285.579C837.083 292.87 419.752 9.06878 60.0195 5.92871" stroke="#DC7FAB" stroke-miterlimit="10" stroke-linecap="round" stroke-linejoin="round"/>
</g>
</g>
</svg>
