<svg width="602" height="206" viewBox="0 0 602 206" fill="none" xmlns="http://www.w3.org/2000/svg">
<g filter="url(#filter0_bd_2033_1497)">
<path d="M12 62C12 34.3858 34.3858 12 62 12H540C567.614 12 590 34.3858 590 62V94C590 149.228 545.228 194 490 194H112C56.7715 194 12 149.228 12 94V62Z" fill="white" fill-opacity="0.05" shape-rendering="crispEdges"/>
<path d="M62 12.5H540C567.338 12.5 589.5 34.6619 589.5 62V94C589.5 148.952 544.952 193.5 490 193.5H112C57.0477 193.5 12.5 148.952 12.5 94V62C12.5 34.6619 34.6619 12.5 62 12.5Z" stroke="url(#paint0_linear_2033_1497)" shape-rendering="crispEdges"/>
</g>
<defs>
<filter id="filter0_bd_2033_1497" x="-48.3" y="-48.3" width="698.6" height="302.6" filterUnits="userSpaceOnUse" color-interpolation-filters="sRGB">
<feFlood flood-opacity="0" result="BackgroundImageFix"/>
<feGaussianBlur in="BackgroundImageFix" stdDeviation="30.15"/>
<feComposite in2="SourceAlpha" operator="in" result="effect1_backgroundBlur_2033_1497"/>
<feColorMatrix in="SourceAlpha" type="matrix" values="0 0 0 0 0 0 0 0 0 0 0 0 0 0 0 0 0 0 127 0" result="hardAlpha"/>
<feOffset/>
<feGaussianBlur stdDeviation="5.95"/>
<feComposite in2="hardAlpha" operator="out"/>
<feColorMatrix type="matrix" values="0 0 0 0 1 0 0 0 0 1 0 0 0 0 1 0 0 0 0.25 0"/>
<feBlend mode="normal" in2="effect1_backgroundBlur_2033_1497" result="effect2_dropShadow_2033_1497"/>
<feBlend mode="normal" in="SourceGraphic" in2="effect2_dropShadow_2033_1497" result="shape"/>
</filter>
<linearGradient id="paint0_linear_2033_1497" x1="337.5" y1="194" x2="347.5" y2="-64.5" gradientUnits="userSpaceOnUse">
<stop stop-color="white"/>
<stop offset="1" stop-color="white" stop-opacity="0"/>
</linearGradient>
</defs>
</svg>
