<svg width="25" height="24" viewBox="0 0 25 24" fill="none" xmlns="http://www.w3.org/2000/svg">
<path d="M9.1702 4C9.1702 3.58579 8.83441 3.25 8.4202 3.25C8.00598 3.25 7.6702 3.58579 7.6702 4H9.1702ZM7.6702 6.81583C7.6702 7.23004 8.00598 7.56583 8.4202 7.56583C8.83441 7.56583 9.1702 7.23004 9.1702 6.81583H7.6702ZM15.1385 6.81583C15.1385 7.23004 15.4743 7.56583 15.8885 7.56583C16.3027 7.56583 16.6385 7.23004 16.6385 6.81583H15.1385ZM16.6385 4.00003C16.6385 3.58581 16.3027 3.25003 15.8885 3.25003C15.4743 3.25003 15.1385 3.58581 15.1385 4.00003H16.6385ZM4.68604 17.1994L5.43604 17.1994L4.68604 17.1994ZM4.68605 7.86398L5.43605 7.86398V7.86398H4.68605ZM7.6702 4V6.81583H9.1702V4H7.6702ZM15.8885 5.81336H16.8221V4.31336H15.8885V5.81336ZM15.1385 5.06336V6.81583H16.6385V5.06336H15.1385ZM16.6385 5.06336V4.00003H15.1385V5.06336H16.6385ZM3.93604 17.1994C3.93604 19.1603 5.5257 20.75 7.48666 20.75V19.25C6.35413 19.25 5.43604 18.3319 5.43604 17.1994L3.93604 17.1994ZM18.8727 17.1994C18.8727 18.3319 17.9546 19.25 16.8221 19.25V20.75C18.783 20.75 20.3727 19.1603 20.3727 17.1994H18.8727ZM20.3727 7.86398C20.3727 5.90303 18.783 4.31336 16.8221 4.31336V5.81336C17.9546 5.81336 18.8727 6.73146 18.8727 7.86398H20.3727ZM5.43605 7.86398C5.43605 6.73146 6.35414 5.81336 7.48667 5.81336V4.31336C5.52571 4.31336 3.93605 5.90303 3.93605 7.86398H5.43605ZM4.68604 10.5831H19.6227V9.08312H4.68604V10.5831ZM18.8727 7.86398V17.1994H20.3727V7.86398H18.8727ZM5.43604 17.1994L5.43605 7.86398L3.93605 7.86398L3.93604 17.1994L5.43604 17.1994ZM7.48667 5.81336H15.8885V4.31336H7.48667V5.81336ZM16.8221 19.25H7.48666V20.75H16.8221V19.25Z" fill="url(#paint0_radial_0_2315)"/>
<defs>
<radialGradient id="paint0_radial_0_2315" cx="0" cy="0" r="1" gradientUnits="userSpaceOnUse" gradientTransform="translate(17.917 7.85641) rotate(123.966) scale(19.3907 17.2515)">
<stop stop-color="#7388FF"/>
<stop offset="0.503425" stop-color="#CA73FF"/>
<stop offset="1" stop-color="#FF739D"/>
</radialGradient>
</defs>
</svg>
