<svg width="32" height="33" viewBox="0 0 32 33" fill="none" xmlns="http://www.w3.org/2000/svg">
<path d="M21.3756 6.74104C21.3756 6.74104 22.0051 6.22494 22.3811 6.06918C22.7572 5.91342 23.1602 5.83325 23.5672 5.83325C23.9742 5.83325 24.3773 5.91342 24.7533 6.06918C25.1293 6.22494 25.471 6.45323 25.7588 6.74104C26.0466 7.02884 26.2749 7.37052 26.4307 7.74655C26.5864 8.12258 26.6666 8.52561 26.6666 8.93263C26.6666 9.33965 26.5864 9.74268 26.4307 10.1187C26.2749 10.4947 25.7588 11.1242 25.7588 11.1242C25.7588 11.1242 15.8026 23.9666 10.9656 25.9175C9.77197 26.3989 8.1604 26.8298 6.90405 27.1295C5.96774 27.3529 5.14694 26.5321 5.37032 25.5958C5.67005 24.3394 6.10098 22.7279 6.58238 21.5343C8.53324 16.6972 21.3756 6.74104 21.3756 6.74104Z" stroke="url(#paint0_radial_0_2478)" strokeWidth="1.5" strokeLinecap="round" strokeLinejoin="round"/>
<defs>
<radialGradient id="paint0_radial_0_2478" cx="0" cy="0" r="1" gradientUnits="userSpaceOnUse" gradientTransform="translate(24.2304 10.9751) rotate(125.815) scale(26.4426 24.0914)">
<stop stopColor="#7388FF"/>
<stop offset="0.503425" stopColor="#CA73FF"/>
<stop offset="1" stopColor="#FF739D"/>
</radialGradient>
</defs>
</svg>
