<svg width="105" height="19" viewBox="0 0 105 19" fill="none" xmlns="http://www.w3.org/2000/svg">
<g clip-path="url(#clip0_0_3232)">
<path d="M10.4997 0L12.8567 7.255H20.4867L14.3137 11.739L16.6717 18.995L10.4997 14.51L4.32767 18.994L6.68567 11.738L0.513672 7.255H8.14267L10.4997 0Z" fill="#FFD84D"/>
</g>
<g clip-path="url(#clip1_0_3232)">
<path d="M31.4997 0L33.8567 7.255H41.4867L35.3137 11.739L37.6717 18.995L31.4997 14.51L25.3277 18.994L27.6857 11.738L21.5137 7.255H29.1427L31.4997 0Z" fill="#FFD84D"/>
</g>
<g clip-path="url(#clip2_0_3232)">
<path d="M52.4997 0L54.8567 7.255H62.4867L56.3137 11.739L58.6717 18.995L52.4997 14.51L46.3277 18.994L48.6857 11.738L42.5137 7.255H50.1427L52.4997 0Z" fill="#FFD84D"/>
</g>
<g clip-path="url(#clip3_0_3232)">
<path d="M73.4997 0L75.8567 7.255H83.4867L77.3137 11.739L79.6717 18.995L73.4997 14.51L67.3277 18.994L69.6857 11.738L63.5137 7.255H71.1427L73.4997 0Z" fill="#FFD84D"/>
</g>
<g clip-path="url(#clip4_0_3232)">
<path d="M94.4997 0L96.8567 7.255H104.487L98.3137 11.739L100.672 18.995L94.4997 14.51L88.3277 18.994L90.6857 11.738L84.5137 7.255H92.1427L94.4997 0Z" fill="#FFD84D"/>
</g>
<defs>
<clipPath id="clip0_0_3232">
<rect width="21" height="19" fill="white"/>
</clipPath>
<clipPath id="clip1_0_3232">
<rect width="21" height="19" fill="white" transform="translate(21)"/>
</clipPath>
<clipPath id="clip2_0_3232">
<rect width="21" height="19" fill="white" transform="translate(42)"/>
</clipPath>
<clipPath id="clip3_0_3232">
<rect width="21" height="19" fill="white" transform="translate(63)"/>
</clipPath>
<clipPath id="clip4_0_3232">
<rect width="21" height="19" fill="white" transform="translate(84)"/>
</clipPath>
</defs>
</svg>
